<?xml version="1.0" standalone="no"?>
<!DOCTYPE svg PUBLIC "-//W3C//DTD SVG 20010904//EN"
 "http://www.w3.org/TR/2001/REC-SVG-20010904/DTD/svg10.dtd">
<svg version="1.0" xmlns="http://www.w3.org/2000/svg"
 width="100.000000pt" height="100.000000pt" viewBox="0 0 100.000000 100.000000"
 preserveAspectRatio="xMidYMid meet">
<metadata>
Created by potrace 1.11, written by Peter Selinger 2001-2013
</metadata>
<g transform="translate(0.000000,100.000000) scale(0.100000,-0.100000)"
fill="#000000" stroke="none">
<path d="M370 954 c-30 -8 -76 -28 -102 -44 l-48 -29 -15 29 c-15 30 -37 41
-32 18 1 -7 -4 -12 -10 -11 -24 5 -13 -27 12 -37 14 -5 25 -11 25 -13 0 -3
-16 -21 -35 -42 -76 -83 -102 -211 -69 -338 28 -108 71 -167 160 -218 43 -24
54 -35 48 -48 -5 -9 -8 -33 -8 -53 0 -30 8 -44 41 -77 59 -56 92 -71 163 -71
75 0 111 15 173 73 39 37 47 51 47 80 0 20 -4 39 -10 42 -20 12 -9 31 27 50
50 27 98 69 123 110 21 35 60 196 60 251 0 45 -34 129 -77 188 l-35 49 27 21
c18 15 24 27 20 39 -9 21 -25 22 -25 1 0 -8 -5 -12 -11 -9 -6 4 -17 -1 -24
-11 -11 -16 -17 -17 -32 -7 -99 67 -265 91 -393 57z m443 -283 c16 -14 40 -48
54 -75 20 -40 24 -57 18 -95 -10 -69 -40 -115 -91 -139 -25 -12 -57 -22 -71
-22 -15 0 -45 -12 -67 -28 -37 -25 -45 -27 -151 -27 -105 0 -114 2 -151 27
-21 15 -58 31 -81 36 -63 14 -129 61 -149 106 l-18 38 32 62 c36 68 54 91 95
123 l28 21 24 -24 c21 -21 33 -24 92 -24 38 0 91 6 118 14 28 8 76 21 108 30
32 9 71 22 85 30 24 13 31 12 62 -6 19 -12 48 -33 63 -47z"/>
<path d="M243 542 c-8 -5 1 -8 22 -8 21 0 30 3 22 8 -6 4 -16 8 -22 8 -5 0
-16 -4 -22 -8z"/>
<path d="M706 542 c-3 -5 8 -6 25 -4 16 2 29 6 29 8 0 8 -49 4 -54 -4z"/>
<path d="M246 477 c-29 -21 -17 -61 18 -65 43 -5 61 32 30 62 -19 19 -25 20
-48 3z"/>
<path d="M733 483 c-7 -2 -9 -11 -6 -19 4 -10 0 -12 -11 -8 -19 7 -20 0 -6
-27 21 -38 87 -12 73 29 -6 16 -35 31 -50 25z"/>
<path d="M473 338 c2 -7 16 -13 32 -13 16 0 30 6 33 13 2 8 -8 12 -33 12 -25
0 -35 -4 -32 -12z"/>
</g>
</svg>
